<svg xmlns="http://www.w3.org/2000/svg" xmlns:lucid="lucid" xmlns:xlink="http://www.w3.org/1999/xlink" width="1162" height="362"><g lucid:page-tab-id="0_0" transform="translate(-19 -19)"><path fill="none" stroke="#282c33" stroke-width="2" d="M480 166a6 6 0 0 1 6-6h228a6 6 0 0 1 6 6v68a6 6 0 0 1-6 6H486a6 6 0 0 1-6-6zM40 326a6 6 0 0 1 6-6h148a6 6 0 0 1 6 6v28a6 6 0 0 1-6 6H46a6 6 0 0 1-6-6z"/><use xlink:href="#a" transform="translate(87.963 345.944)"/><path fill="none" stroke="#282c33" stroke-width="2" d="M280 326a6 6 0 0 1 6-6h148a6 6 0 0 1 6 6v28a6 6 0 0 1-6 6H286a6 6 0 0 1-6-6z"/><use xlink:href="#b" transform="translate(316.296 345.944)"/><path fill="none" stroke="#282c33" stroke-width="2" d="M520 326a6 6 0 0 1 6-6h148a6 6 0 0 1 6 6v28a6 6 0 0 1-6 6H526a6 6 0 0 1-6-6z"/><use xlink:href="#c" transform="translate(525.864 345.944)"/><path fill="none" stroke="#282c33" stroke-width="2" d="M1000 326a6 6 0 0 1 6-6h148a6 6 0 0 1 6 6v28a6 6 0 0 1-6 6h-148a6 6 0 0 1-6-6z"/><use xlink:href="#d" transform="translate(1041.142 345.944)"/><path fill="none" stroke="#282c33" stroke-width="2" d="M760 326a6 6 0 0 1 6-6h148a6 6 0 0 1 6 6v28a6 6 0 0 1-6 6H766a6 6 0 0 1-6-6z"/><use xlink:href="#e" transform="translate(792.16 345.944)"/><path fill="none" stroke="#282c33" stroke-width="2" d="M520 46a6 6 0 0 1 6-6h148a6 6 0 0 1 6 6v28a6 6 0 0 1-6 6H526a6 6 0 0 1-6-6z"/><use xlink:href="#f" transform="translate(582.747 65.944)"/><path fill="none" d="M480 186a6 6 0 0 1 6-6h228a6 6 0 0 1 6 6v48a6 6 0 0 1-6 6H486a6 6 0 0 1-6-6z"/><use xlink:href="#g" transform="translate(498.488 201.111)"/><use xlink:href="#h" transform="translate(575.957 201.111)"/><use xlink:href="#i" transform="translate(628.858 201.111)"/><use xlink:href="#j" transform="translate(551.296 227.778)"/><path fill="none" stroke="#3a414a" d="M120 318.5V203.33a6 6 0 0 1 6-6h323.63"/><path fill="#3a414a" stroke="#3a414a" stroke-width=".05" d="M120.47 319h-.94v-.5h.94z"/><path fill="#3a414a" stroke="#3a414a" d="m479.3 197.33-14.86 14.85-15.15-14.85 15.14-14.85z"/><path fill="none" stroke="#3a414a" d="M360 318.5v-33a6 6 0 0 1 6-6h228a6 6 0 0 0 6-6v-2.13"/><path fill="#3a414a" stroke="#3a414a" stroke-width=".05" d="M360.48 319h-.96v-.5h.96z"/><path fill="#3a414a" stroke="#3a414a" d="m600 241.7 14.85 14.86L600 271.7l-14.85-15.14z"/><path fill="none" stroke="#3a414a" d="M600 318.5v-47.13"/><path fill="#3a414a" stroke="#3a414a" stroke-width=".05" d="M600.48 319h-.96v-.5h.96z"/><path fill="#3a414a" stroke="#3a414a" d="m600 241.7 14.85 14.86L600 271.7l-14.85-15.14z"/><path fill="none" stroke="#3a414a" d="M840 318.5v-33a6 6 0 0 0-6-6H604.67a6 6 0 0 1-6-6v-3.13"/><path fill="#3a414a" stroke="#3a414a" stroke-width=".05" d="M840.48 319h-.96v-.5h.96z"/><path fill="#3a414a" stroke="#3a414a" d="m598.67 240.7 14.85 14.86-14.85 15.15-14.85-15.14z"/><path fill="none" stroke="#3a414a" d="M1080 318.5V208.67a6 6 0 0 0-6-6H750.37"/><path fill="#3a414a" stroke="#3a414a" stroke-width=".05" d="M1080.47 319h-.94v-.5h.94z"/><path fill="#3a414a" stroke="#3a414a" d="m720.7 202.67 14.86-14.85 15.15 14.85-15.14 14.85z"/><path fill="#3a414a" d="M600.5 81.5c0 .28-.22.5-.5.5s-.5-.22-.5-.5.22-.5.5-.5.5.22.5.5m0 2c0 .27-.22.5-.5.5s-.5-.23-.5-.5c0-.3.22-.5.5-.5s.5.2.5.5m0 1.98c0 .27-.22.5-.5.5s-.5-.23-.5-.5c0-.28.22-.5.5-.5s.5.22.5.5m0 2c0 .27-.22.5-.5.5s-.5-.23-.5-.5c0-.3.22-.5.5-.5s.5.2.5.5m0 1.98c0 .27-.22.5-.5.5s-.5-.23-.5-.5c0-.28.22-.5.5-.5s.5.22.5.5m0 2c0 .26-.22.5-.5.5s-.5-.24-.5-.5c0-.3.22-.5.5-.5s.5.2.5.5m0 1.98c0 .27-.22.5-.5.5s-.5-.23-.5-.5c0-.28.22-.5.5-.5s.5.22.5.5m0 2c0 .26-.22.5-.5.5s-.5-.24-.5-.5c0-.3.22-.5.5-.5s.5.2.5.5m0 1.98c0 .27-.22.5-.5.5s-.5-.23-.5-.5c0-.28.22-.5.5-.5s.5.22.5.5m0 2c0 .26-.22.5-.5.5s-.5-.24-.5-.5c0-.3.22-.5.5-.5s.5.2.5.5m0 1.97c0 .27-.22.5-.5.5s-.5-.23-.5-.5c0-.28.22-.5.5-.5s.5.22.5.5m0 1.98c0 .28-.22.5-.5.5s-.5-.22-.5-.5c0-.27.22-.5.5-.5s.5.23.5.5m0 2c0 .27-.22.5-.5.5s-.5-.23-.5-.5c0-.28.22-.5.5-.5s.5.22.5.5m0 1.98c0 .28-.22.5-.5.5s-.5-.22-.5-.5c0-.27.22-.5.5-.5s.5.23.5.5m0 2c0 .27-.22.5-.5.5s-.5-.23-.5-.5c0-.28.22-.5.5-.5s.5.22.5.5m0 1.98c0 .28-.22.5-.5.5s-.5-.22-.5-.5c0-.27.22-.5.5-.5s.5.23.5.5m0 2c0 .27-.22.5-.5.5s-.5-.23-.5-.5c0-.28.22-.5.5-.5s.5.22.5.5m0 1.98c0 .28-.22.5-.5.5s-.5-.22-.5-.5c0-.27.22-.5.5-.5s.5.23.5.5m0 2c0 .27-.22.5-.5.5s-.5-.23-.5-.5c0-.28.22-.5.5-.5s.5.22.5.5m0 1.98c0 .28-.22.5-.5.5s-.5-.22-.5-.5c0-.27.22-.5.5-.5s.5.23.5.5m0 2c0 .27-.22.5-.5.5s-.5-.23-.5-.5c0-.3.22-.5.5-.5s.5.2.5.5m0 1.98c0 .28-.22.5-.5.5s-.5-.22-.5-.5.22-.5.5-.5.5.22.5.5m0 2c0 .27-.22.5-.5.5s-.5-.23-.5-.5c0-.3.22-.5.5-.5s.5.2.5.5m0 1.98c0 .27-.22.5-.5.5s-.5-.23-.5-.5c0-.28.22-.5.5-.5s.5.22.5.5m0 2c0 .26-.22.5-.5.5s-.5-.24-.5-.5c0-.3.22-.5.5-.5s.5.2.5.5m0 1.98c0 .27-.22.5-.5.5s-.5-.23-.5-.5c0-.28.22-.5.5-.5s.5.22.5.5m0 2c0 .26-.22.5-.5.5s-.5-.24-.5-.5c0-.3.22-.5.5-.5s.5.2.5.5m0 1.98c0 .27-.22.5-.5.5s-.5-.23-.5-.5c0-.28.22-.5.5-.5s.5.22.5.5m0 2c0 .26-.22.5-.5.5s-.5-.24-.5-.5c0-.3.22-.5.5-.5s.5.2.5.5m0 1.98c0 .27-.22.5-.5.5s-.5-.23-.5-.5c0-.28.22-.5.5-.5s.5.22.5.5m0 2c0 .26-.22.5-.5.5s-.5-.24-.5-.5c0-.3.22-.5.5-.5s.5.2.5.5m0 1.98c0 .27-.22.5-.5.5s-.5-.23-.5-.5c0-.28.22-.5.5-.5s.5.22.5.5m0 1.98c0 .28-.22.5-.5.5s-.5-.22-.5-.5c0-.27.22-.5.5-.5s.5.23.5.5m0 2c0 .27-.22.5-.5.5s-.5-.23-.5-.5c0-.28.22-.5.5-.5s.5.22.5.5m0 1.98c0 .28-.22.5-.5.5s-.5-.22-.5-.5c0-.27.22-.5.5-.5s.5.23.5.5m0 2c0 .27-.22.5-.5.5s-.5-.23-.5-.5c0-.28.22-.5.5-.5s.5.22.5.5m0 1.98c0 .28-.22.5-.5.5s-.5-.22-.5-.5c0-.27.22-.5.5-.5s.5.23.5.5m0 2c0 .27-.22.5-.5.5s-.5-.23-.5-.5c0-.28.22-.5.5-.5s.5.22.5.5m0 1.98c0 .28-.22.5-.5.5s-.5-.22-.5-.5.22-.5.5-.5.5.22.5.5"/><path fill="#3a414a" stroke="#3a414a" stroke-width=".05" d="M600.48 81.5h-.96V81h.96z"/><path fill="none" stroke="#3a414a" d="M589.82 141.8 600 159.02l10.18-17.22"/><defs><path id="k" fill="#3a414a" d="M212-179c-10-28-35-45-73-45-59 0-87 40-87 99 0 60 29 101 89 101 43 0 62-24 78-52l27 14C228-24 195 4 139 4 59 4 22-46 18-125c-6-104 99-153 187-111 19 9 31 26 39 46"/><path id="l" fill="#3a414a" d="M100-194c62-1 85 37 85 99 1 63-27 99-86 99S16-35 15-95c0-66 28-99 85-99M99-20c44 1 53-31 53-75 0-43-8-75-51-75s-53 32-53 75 10 74 51 75"/><path id="m" fill="#3a414a" d="M117-194c89-4 53 116 60 194h-32v-121c0-31-8-49-39-48C34-167 62-67 57 0H25l-1-190h30c1 10-1 24 2 32 11-22 29-35 61-36"/><path id="n" fill="#3a414a" d="M101-234c-31-9-42 10-38 44h38v23H63V0H32v-167H5v-23h27c-7-52 17-82 69-68z"/><path id="o" fill="#3a414a" d="M24-231v-30h32v30zM24 0v-190h32V0z"/><path id="p" fill="#3a414a" d="M177-190C167-65 218 103 67 71c-23-6-38-20-44-43l32-5c15 47 100 32 89-28v-30C133-14 115 1 83 1 29 1 15-40 15-95c0-56 16-97 71-98 29-1 48 16 59 35 1-10 0-23 2-32zM94-22c36 0 50-32 50-73 0-42-14-75-50-75-39 0-46 34-46 75s6 73 46 73"/><path id="q" fill="#3a414a" d="M233-177c-1 41-23 64-60 70L243 0h-38l-65-103H63V0H30v-248c88 3 205-21 203 71M63-129c60-2 137 13 137-47 0-61-80-42-137-45z"/><path id="r" fill="#3a414a" d="M100-194c63 0 86 42 84 106H49c0 40 14 67 53 68 26 1 43-12 49-29l28 8c-11 28-37 45-77 45C44 4 14-33 15-96c1-61 26-98 85-98m52 81c6-60-76-77-97-28-3 7-6 17-6 28z"/><path id="s" fill="#3a414a" d="M59-47c-2 24 18 29 38 22v24C64 9 27 4 27-40v-127H5v-23h24l9-43h21v43h35v23H59z"/><path id="t" fill="#3a414a" d="M114-163C36-179 61-72 57 0H25l-1-190h30c1 12-1 29 2 39 6-27 23-49 58-41z"/><path id="u" fill="#3a414a" d="M108 0H70L1-190h34L89-25l56-165h34"/><path id="v" fill="#3a414a" d="M141-36C126-15 110 5 73 4 37 3 15-17 15-53c-1-64 63-63 125-63 3-35-9-54-41-54-24 1-41 7-42 31l-33-3c5-37 33-52 76-52 45 0 72 20 72 64v82c-1 20 7 32 28 27v20c-31 9-61-2-59-35M48-53c0 20 12 33 32 33 41-3 63-29 60-74-43 2-92-5-92 41"/><path id="w" fill="#3a414a" d="M24 0v-261h32V0z"/><path id="x" fill="#3a414a" d="M127-220V0H93v-220H8v-28h204v28z"/><path id="y" fill="#3a414a" d="M135-143c-3-34-86-38-87 0 15 53 115 12 119 90S17 21 10-45l28-5c4 36 97 45 98 0-10-56-113-15-118-90-4-57 82-63 122-42 12 7 21 19 24 35"/><path id="z" fill="#3a414a" d="M210-169c-67 3-38 105-44 169h-31v-121c0-29-5-50-35-48C34-165 62-65 56 0H25l-1-190h30c1 10-1 24 2 32 10-44 99-50 107 0 11-21 27-35 58-36 85-2 47 119 55 194h-31v-121c0-29-5-49-35-48"/><path id="A" fill="#3a414a" d="M185-189c-5-48-123-54-124 2 14 75 158 14 163 119 3 78-121 87-175 55-17-10-28-26-33-46l33-7c5 56 141 63 141-1 0-78-155-14-162-118-5-82 145-84 179-34 5 7 8 16 11 25"/><path id="B" fill="#3a414a" d="M137 0h-34L2-248h35l83 218 83-218h36"/><path id="C" fill="#3a414a" d="M85-194c31 0 48 13 60 33l-1-100h32l1 261h-30c-2-10 0-23-3-31C134-8 116 4 85 4 32 4 16-35 15-94c0-66 23-100 70-100m9 24c-40 0-46 34-46 75 0 40 6 74 45 74 42 0 51-32 51-76 0-42-9-74-50-73"/><path id="D" fill="#3a414a" d="M30 0v-248h33v221h125V0z"/><path id="E" fill="#3a414a" d="M33 0v-248h34V0z"/><path id="F" fill="#3a414a" d="M96-169c-40 0-48 33-48 73s9 75 48 75c24 0 41-14 43-38l32 2c-6 37-31 61-74 61-59 0-76-41-82-99-10-93 101-131 147-64 4 7 5 14 7 22l-32 3c-4-21-16-35-41-35"/><path id="G" fill="#3a414a" d="M179-190 93 31C79 59 56 82 12 73V49c39 6 53-20 64-50L1-190h34L92-34l54-156z"/><path id="H" fill="#3a414a" d="M115-194c55 1 70 41 70 98S169 2 115 4C84 4 66-9 55-30l1 105H24l-1-265h31l2 30c10-21 28-34 59-34m-8 174c40 0 45-34 45-75s-6-73-45-74c-42 0-51 32-51 76 0 43 10 73 51 73"/><g id="a"><use xlink:href="#k" transform="rotate(.413)scale(.06173)"/><use xlink:href="#l" transform="translate(15.988)scale(.06173)"/><use xlink:href="#m" transform="translate(28.333)scale(.06173)"/><use xlink:href="#n" transform="translate(40.679)scale(.06173)"/><use xlink:href="#o" transform="translate(46.852)scale(.06173)"/><use xlink:href="#p" transform="translate(51.728)scale(.06173)"/></g><g id="b"><use xlink:href="#q" transform="rotate(.413)scale(.06173)"/><use xlink:href="#r" transform="translate(15.988)scale(.06173)"/><use xlink:href="#s" transform="translate(28.333)scale(.06173)"/><use xlink:href="#t" transform="translate(34.506)scale(.06173)"/><use xlink:href="#o" transform="translate(41.852)scale(.06173)"/><use xlink:href="#r" transform="translate(46.728)scale(.06173)"/><use xlink:href="#u" transform="translate(59.074)scale(.06173)"/><use xlink:href="#v" transform="translate(70.185)scale(.06173)"/><use xlink:href="#w" transform="translate(82.53)scale(.06173)"/></g><g id="c"><use xlink:href="#x" transform="rotate(.413)scale(.06173)"/><use xlink:href="#t" transform="translate(12.716)scale(.06173)"/><use xlink:href="#v" transform="rotate(.413 771625 0)scale(.06173)"/><use xlink:href="#m" transform="translate(32.407)scale(.06173)"/><use xlink:href="#y" transform="translate(44.753)scale(.06173)"/><use xlink:href="#n" transform="translate(55.864)scale(.06173)"/><use xlink:href="#l" transform="translate(62.037)scale(.06173)"/><use xlink:href="#t" transform="translate(74.383)scale(.06173)"/><use xlink:href="#z" transform="translate(81.728)scale(.06173)"/><use xlink:href="#v" transform="translate(100.185)scale(.06173)"/><use xlink:href="#s" transform="translate(112.53)scale(.06173)"/><use xlink:href="#o" transform="translate(118.704)scale(.06173)"/><use xlink:href="#l" transform="translate(123.58)scale(.06173)"/><use xlink:href="#m" transform="translate(135.926)scale(.06173)"/></g><g id="d"><use xlink:href="#A" transform="rotate(.413)scale(.06173)"/><use xlink:href="#s" transform="translate(14.815)scale(.06173)"/><use xlink:href="#l" transform="translate(20.988)scale(.06173)"/><use xlink:href="#t" transform="translate(33.333)scale(.06173)"/><use xlink:href="#v" transform="translate(40.679)scale(.06173)"/><use xlink:href="#p" transform="translate(53.025)scale(.06173)"/><use xlink:href="#r" transform="translate(65.37)scale(.06173)"/></g><g id="e"><use xlink:href="#B" transform="rotate(.413)scale(.06173)"/><use xlink:href="#v" transform="translate(13.148)scale(.06173)"/><use xlink:href="#w" transform="translate(25.494)scale(.06173)"/><use xlink:href="#o" transform="translate(30.37)scale(.06173)"/><use xlink:href="#C" transform="translate(35.247)scale(.06173)"/><use xlink:href="#v" transform="translate(47.593)scale(.06173)"/><use xlink:href="#s" transform="translate(59.938)scale(.06173)"/><use xlink:href="#o" transform="translate(66.111)scale(.06173)"/><use xlink:href="#l" transform="translate(70.988)scale(.06173)"/><use xlink:href="#m" transform="translate(83.333)scale(.06173)"/></g><g id="f"><use xlink:href="#k" transform="rotate(.413)scale(.06173)"/><use xlink:href="#D" transform="translate(15.988)scale(.06173)"/><use xlink:href="#E" transform="translate(28.333)scale(.06173)"/></g><g id="g"><use xlink:href="#k" transform="rotate(.413)scale(.06173)"/><use xlink:href="#w" transform="translate(15.988)scale(.06173)"/><use xlink:href="#o" transform="rotate(.413 802490 0)scale(.06173)"/><use xlink:href="#m" transform="translate(25.74)scale(.06173)"/><use xlink:href="#o" transform="translate(38.086)scale(.06173)"/><use xlink:href="#F" transform="translate(42.963)scale(.06173)"/><use xlink:href="#v" transform="translate(54.074)scale(.06173)"/><use xlink:href="#w" transform="translate(66.42)scale(.06173)"/></g><g id="h"><use xlink:href="#s" transform="rotate(.413)scale(.06173)"/><use xlink:href="#t" transform="translate(6.173)scale(.06173)"/><use xlink:href="#o" transform="translate(13.519)scale(.06173)"/><use xlink:href="#v" transform="translate(18.395)scale(.06173)"/><use xlink:href="#w" transform="translate(30.74)scale(.06173)"/><use xlink:href="#y" transform="translate(35.617)scale(.06173)"/></g><g id="i"><use xlink:href="#t" transform="rotate(.413)scale(.06173)"/><use xlink:href="#r" transform="translate(7.346)scale(.06173)"/><use xlink:href="#p" transform="translate(19.691)scale(.06173)"/><use xlink:href="#o" transform="translate(32.037)scale(.06173)"/><use xlink:href="#y" transform="translate(36.914)scale(.06173)"/><use xlink:href="#s" transform="translate(48.025)scale(.06173)"/><use xlink:href="#t" transform="translate(54.198)scale(.06173)"/><use xlink:href="#G" transform="translate(61.543)scale(.06173)"/></g><g id="j"><use xlink:href="#H" transform="rotate(.413)scale(.06173)"/><use xlink:href="#t" transform="translate(12.346)scale(.06173)"/><use xlink:href="#l" transform="translate(19.691)scale(.06173)"/><use xlink:href="#F" transform="translate(32.037)scale(.06173)"/><use xlink:href="#r" transform="translate(43.148)scale(.06173)"/><use xlink:href="#y" transform="translate(55.494)scale(.06173)"/><use xlink:href="#y" transform="translate(66.605)scale(.06173)"/><use xlink:href="#l" transform="translate(77.716)scale(.06173)"/><use xlink:href="#t" transform="translate(90.062)scale(.06173)"/></g></defs></g></svg>